<svg xmlns="http://www.w3.org/2000/svg" viewBox="0 0 256 257" fill="none"><defs><linearGradient id="a" x1="6" x2="235" y1="33" y2="344" gradientUnits="userSpaceOnUse"><stop stop-color="#41D1FF"/><stop offset="1" stop-color="#BD34FE"/></linearGradient><linearGradient id="b" x1="194" x2="236" y1="8" y2="292" gradientUnits="userSpaceOnUse"><stop stop-color="#FFEA83"/><stop offset=".083" stop-color="#FFDD35"/><stop offset="1" stop-color="#FFA800"/></linearGradient></defs><path fill="url(#a)" d="M255 38 134 255c-2 4-7 4-10 0L1 38c-2-4 1-9 5-8l121 22a6 6 0 0 0 2 0l120-22c4-1 8 4 5 8Z"/><path fill="url(#b)" d="m185 1-90 18a3 3 0 0 0-2 2L87 55a3 3 0 0 0 4 3l25-5c2 0 4 1 4 3l-15 73a3 3 0 0 0 4 3l15-5c2 0 4 2 4 4l-10 51c0 3 3 4 5 2l1-1 73-146c1-2 0-5-3-5l-26 5c-2 0-4-1-4-3l17-29c1-2 0-5-3-4Z"/></svg>
